<?xml version="1.0" encoding="UTF-8"?>
<svg xmlns="http://www.w3.org/2000/svg" width="771" height="746" viewBox="0 0 771 746" role="img" aria-label="Virtual Ventures crystal planet logo">
  <title>Virtual Ventures crystal planet logo</title>
  <path d="M 355.0 25.0 L 354.0 26.0 L 335.0 27.0 L 329.0 29.0 L 306.0 32.0 L 276.0 40.0 L 242.0 52.0 L 212.0 67.0 L 210.0 66.0 L 211.0 67.0 L 203.0 72.0 L 200.0 70.0 L 202.0 72.0 L 185.0 83.0 L 183.0 82.0 L 184.0 83.0 L 172.0 91.0 L 152.0 107.0 L 151.0 106.0 L 152.0 107.0 L 147.0 112.0 L 145.0 111.0 L 146.0 112.0 L 133.0 124.0 L 132.0 123.0 L 133.0 124.0 L 130.0 127.0 L 128.0 127.0 L 129.0 128.0 L 126.0 131.0 L 125.0 130.0 L 124.0 131.0 L 125.0 132.0 L 105.0 154.0 L 89.0 175.0 L 88.0 174.0 L 89.0 176.0 L 79.0 190.0 L 72.0 203.0 L 70.0 204.0 L 70.0 207.0 L 63.0 218.0 L 60.0 225.0 L 59.0 224.0 L 60.0 225.0 L 48.0 252.0 L 40.0 275.0 L 37.0 288.0 L 36.0 289.0 L 35.0 288.0 L 36.0 293.0 L 33.0 302.0 L 29.0 328.0 L 28.0 329.0 L 28.0 337.0 L 26.0 347.0 L 25.0 397.0 L 24.0 398.0 L 25.0 397.0 L 26.0 398.0 L 26.0 411.0 L 27.0 412.0 L 28.0 429.0 L 33.0 455.0 L 35.0 459.0 L 35.0 461.0 L 33.0 462.0 L 36.0 463.0 L 37.0 470.0 L 40.0 477.0 L 39.0 480.0 L 40.0 479.0 L 42.0 484.0 L 41.0 485.0 L 39.0 483.0 L 41.0 486.0 L 42.0 485.0 L 44.0 489.0 L 43.0 492.0 L 44.0 491.0 L 50.0 506.0 L 57.0 520.0 L 56.0 523.0 L 57.0 521.0 L 59.0 524.0 L 57.0 526.0 L 59.0 528.0 L 60.0 527.0 L 65.0 535.0 L 64.0 537.0 L 63.0 536.0 L 64.0 537.0 L 63.0 538.0 L 65.0 536.0 L 67.0 539.0 L 65.0 541.0 L 67.0 540.0 L 69.0 542.0 L 68.0 544.0 L 69.0 543.0 L 73.0 549.0 L 72.0 551.0 L 73.0 550.0 L 75.0 552.0 L 76.0 555.0 L 81.0 561.0 L 80.0 563.0 L 79.0 562.0 L 80.0 563.0 L 81.0 562.0 L 84.0 566.0 L 82.0 568.0 L 84.0 566.0 L 89.0 572.0 L 88.0 577.0 L 89.0 573.0 L 97.0 584.0 L 108.0 596.0 L 106.0 598.0 L 104.0 595.0 L 105.0 596.0 L 104.0 599.0 L 108.0 596.0 L 129.0 618.0 L 128.0 619.0 L 129.0 618.0 L 131.0 620.0 L 129.0 622.0 L 131.0 620.0 L 144.0 632.0 L 162.0 646.0 L 161.0 647.0 L 162.0 646.0 L 169.0 651.0 L 168.0 655.0 L 169.0 651.0 L 184.0 661.0 L 185.0 665.0 L 187.0 663.0 L 201.0 672.0 L 200.0 673.0 L 202.0 672.0 L 207.0 675.0 L 208.0 678.0 L 207.0 677.0 L 209.0 676.0 L 225.0 685.0 L 223.0 687.0 L 225.0 685.0 L 227.0 686.0 L 226.0 687.0 L 229.0 686.0 L 231.0 688.0 L 237.0 690.0 L 238.0 692.0 L 239.0 691.0 L 249.0 696.0 L 248.0 697.0 L 251.0 696.0 L 263.0 701.0 L 261.0 702.0 L 263.0 703.0 L 262.0 702.0 L 265.0 701.0 L 266.0 702.0 L 265.0 704.0 L 266.0 702.0 L 268.0 702.0 L 295.0 711.0 L 299.0 711.0 L 319.0 716.0 L 337.0 718.0 L 338.0 719.0 L 346.0 719.0 L 347.0 720.0 L 411.0 721.0 L 412.0 720.0 L 435.0 719.0 L 449.0 716.0 L 455.0 716.0 L 460.0 714.0 L 466.0 714.0 L 478.0 710.0 L 481.0 711.0 L 482.0 709.0 L 485.0 709.0 L 492.0 706.0 L 496.0 706.0 L 499.0 704.0 L 502.0 704.0 L 528.0 695.0 L 563.0 678.0 L 564.0 679.0 L 567.0 676.0 L 569.0 677.0 L 568.0 676.0 L 570.0 674.0 L 578.0 670.0 L 580.0 671.0 L 578.0 670.0 L 581.0 668.0 L 583.0 669.0 L 582.0 668.0 L 601.0 655.0 L 603.0 656.0 L 602.0 655.0 L 605.0 652.0 L 608.0 651.0 L 624.0 638.0 L 625.0 639.0 L 624.0 638.0 L 643.0 622.0 L 658.0 606.0 L 660.0 607.0 L 659.0 606.0 L 666.0 598.0 L 667.0 599.0 L 666.0 598.0 L 684.0 576.0 L 706.0 541.0 L 721.0 510.0 L 735.0 470.0 L 743.0 433.0 L 744.0 417.0 L 745.0 416.0 L 745.0 403.0 L 746.0 402.0 L 746.0 358.0 L 745.0 357.0 L 744.0 336.0 L 741.0 321.0 L 742.0 314.0 L 741.0 316.0 L 739.0 311.0 L 739.0 306.0 L 734.0 286.0 L 731.0 279.0 L 731.0 277.0 L 733.0 275.0 L 731.0 277.0 L 730.0 276.0 L 727.0 264.0 L 716.0 236.0 L 703.0 212.0 L 704.0 210.0 L 705.0 211.0 L 702.0 210.0 L 687.0 184.0 L 672.0 164.0 L 673.0 163.0 L 672.0 164.0 L 659.0 148.0 L 660.0 147.0 L 659.0 148.0 L 657.0 146.0 L 658.0 145.0 L 657.0 146.0 L 633.0 121.0 L 613.0 104.0 L 614.0 103.0 L 611.0 100.0 L 612.0 99.0 L 614.0 100.0 L 612.0 98.0 L 609.0 101.0 L 602.0 95.0 L 603.0 94.0 L 602.0 95.0 L 578.0 78.0 L 567.0 72.0 L 565.0 70.0 L 566.0 69.0 L 565.0 66.0 L 564.0 67.0 L 566.0 69.0 L 564.0 70.0 L 559.0 67.0 L 560.0 66.0 L 558.0 67.0 L 548.0 61.0 L 549.0 60.0 L 548.0 61.0 L 544.0 60.0 L 518.0 48.0 L 484.0 37.0 L 459.0 31.0 L 434.0 28.0 L 433.0 27.0 L 434.0 26.0 L 433.0 27.0 L 426.0 27.0 L 425.0 26.0 L 414.0 26.0 L 413.0 25.0 L 389.0 25.0 L 388.0 24.0 L 385.0 25.0 L 383.0 24.0 L 382.0 25.0 Z
M 337.0 39.0 L 346.0 39.0 L 347.0 38.0 L 356.0 38.0 L 357.0 37.0 L 409.0 37.0 L 410.0 38.0 L 408.0 39.0 L 410.0 38.0 L 421.0 38.0 L 422.0 39.0 L 430.0 39.0 L 431.0 40.0 L 451.0 42.0 L 465.0 45.0 L 466.0 46.0 L 463.0 47.0 L 467.0 48.0 L 465.0 47.0 L 466.0 46.0 L 471.0 46.0 L 475.0 48.0 L 479.0 48.0 L 496.0 54.0 L 499.0 54.0 L 500.0 55.0 L 499.0 56.0 L 502.0 55.0 L 505.0 57.0 L 510.0 58.0 L 511.0 59.0 L 510.0 61.0 L 511.0 59.0 L 513.0 59.0 L 526.0 64.0 L 529.0 66.0 L 528.0 67.0 L 530.0 66.0 L 538.0 70.0 L 536.0 71.0 L 538.0 72.0 L 537.0 71.0 L 539.0 70.0 L 549.0 75.0 L 553.0 79.0 L 554.0 78.0 L 555.0 80.0 L 556.0 79.0 L 564.0 84.0 L 562.0 85.0 L 564.0 87.0 L 566.0 85.0 L 569.0 87.0 L 567.0 89.0 L 571.0 88.0 L 584.0 96.0 L 590.0 101.0 L 589.0 102.0 L 587.0 101.0 L 591.0 104.0 L 590.0 105.0 L 591.0 104.0 L 590.0 103.0 L 592.0 102.0 L 602.0 110.0 L 601.0 111.0 L 602.0 110.0 L 609.0 116.0 L 608.0 117.0 L 609.0 116.0 L 611.0 118.0 L 610.0 119.0 L 612.0 120.0 L 613.0 119.0 L 627.0 132.0 L 626.0 133.0 L 627.0 132.0 L 632.0 137.0 L 631.0 138.0 L 633.0 140.0 L 632.0 142.0 L 631.0 141.0 L 632.0 142.0 L 636.0 141.0 L 645.0 151.0 L 644.0 153.0 L 645.0 151.0 L 648.0 154.0 L 647.0 155.0 L 648.0 154.0 L 649.0 155.0 L 648.0 157.0 L 649.0 156.0 L 653.0 160.0 L 652.0 161.0 L 653.0 160.0 L 658.0 166.0 L 657.0 167.0 L 658.0 166.0 L 660.0 168.0 L 658.0 169.0 L 661.0 170.0 L 659.0 172.0 L 659.0 174.0 L 660.0 174.0 L 659.0 172.0 L 661.0 170.0 L 675.0 188.0 L 674.0 190.0 L 673.0 189.0 L 674.0 190.0 L 673.0 191.0 L 675.0 189.0 L 676.0 190.0 L 675.0 192.0 L 676.0 193.0 L 677.0 192.0 L 682.0 199.0 L 681.0 201.0 L 682.0 200.0 L 690.0 212.0 L 698.0 227.0 L 697.0 229.0 L 698.0 228.0 L 699.0 229.0 L 699.0 231.0 L 704.0 240.0 L 703.0 243.0 L 704.0 242.0 L 705.0 243.0 L 704.0 245.0 L 705.0 244.0 L 706.0 246.0 L 703.0 247.0 L 708.0 249.0 L 707.0 251.0 L 706.0 250.0 L 704.0 251.0 L 706.0 250.0 L 707.0 251.0 L 705.0 253.0 L 707.0 254.0 L 708.0 251.0 L 712.0 259.0 L 711.0 262.0 L 712.0 261.0 L 715.0 267.0 L 714.0 270.0 L 713.0 269.0 L 712.0 270.0 L 711.0 268.0 L 711.0 271.0 L 713.0 269.0 L 717.0 273.0 L 718.0 279.0 L 720.0 282.0 L 720.0 284.0 L 719.0 285.0 L 718.0 284.0 L 721.0 286.0 L 722.0 289.0 L 721.0 293.0 L 722.0 292.0 L 723.0 293.0 L 730.0 325.0 L 732.0 347.0 L 733.0 348.0 L 733.0 361.0 L 734.0 362.0 L 734.0 376.0 L 733.0 377.0 L 732.0 376.0 L 734.0 378.0 L 734.0 392.0 L 733.0 393.0 L 731.0 392.0 L 732.0 395.0 L 733.0 393.0 L 734.0 394.0 L 734.0 400.0 L 733.0 401.0 L 734.0 402.0 L 733.0 403.0 L 732.0 421.0 L 731.0 422.0 L 730.0 434.0 L 722.0 469.0 L 721.0 470.0 L 720.0 467.0 L 719.0 468.0 L 721.0 470.0 L 721.0 473.0 L 707.0 511.0 L 693.0 539.0 L 685.0 551.0 L 683.0 550.0 L 685.0 552.0 L 673.0 570.0 L 661.0 585.0 L 659.0 584.0 L 658.0 589.0 L 650.0 598.0 L 648.0 597.0 L 649.0 599.0 L 633.0 615.0 L 632.0 614.0 L 633.0 615.0 L 615.0 631.0 L 613.0 630.0 L 614.0 631.0 L 599.0 643.0 L 597.0 642.0 L 596.0 643.0 L 597.0 644.0 L 594.0 647.0 L 592.0 646.0 L 594.0 644.0 L 592.0 646.0 L 591.0 645.0 L 593.0 647.0 L 572.0 661.0 L 570.0 662.0 L 568.0 661.0 L 569.0 662.0 L 565.0 665.0 L 563.0 663.0 L 564.0 665.0 L 556.0 670.0 L 550.0 672.0 L 546.0 675.0 L 542.0 674.0 L 545.0 675.0 L 541.0 677.0 L 539.0 676.0 L 540.0 677.0 L 529.0 683.0 L 524.0 684.0 L 523.0 682.0 L 524.0 684.0 L 508.0 691.0 L 505.0 690.0 L 506.0 691.0 L 505.0 692.0 L 502.0 692.0 L 492.0 696.0 L 485.0 697.0 L 474.0 701.0 L 444.0 707.0 L 436.0 707.0 L 435.0 708.0 L 418.0 709.0 L 417.0 710.0 L 374.0 711.0 L 373.0 710.0 L 356.0 710.0 L 355.0 709.0 L 336.0 708.0 L 335.0 707.0 L 324.0 706.0 L 319.0 704.0 L 309.0 703.0 L 305.0 701.0 L 300.0 701.0 L 285.0 696.0 L 282.0 696.0 L 272.0 692.0 L 274.0 691.0 L 272.0 690.0 L 273.0 691.0 L 270.0 692.0 L 258.0 687.0 L 259.0 686.0 L 256.0 687.0 L 221.0 671.0 L 220.0 670.0 L 221.0 669.0 L 220.0 670.0 L 217.0 669.0 L 192.0 654.0 L 190.0 652.0 L 191.0 651.0 L 189.0 652.0 L 158.0 629.0 L 130.0 603.0 L 108.0 578.0 L 109.0 577.0 L 108.0 578.0 L 85.0 547.0 L 66.0 511.0 L 67.0 509.0 L 66.0 510.0 L 64.0 507.0 L 65.0 504.0 L 64.0 505.0 L 56.0 488.0 L 46.0 456.0 L 41.0 432.0 L 40.0 417.0 L 39.0 416.0 L 39.0 405.0 L 38.0 404.0 L 38.0 358.0 L 39.0 357.0 L 38.0 356.0 L 39.0 355.0 L 39.0 342.0 L 42.0 328.0 L 43.0 315.0 L 51.0 281.0 L 58.0 263.0 L 58.0 260.0 L 72.0 227.0 L 92.0 193.0 L 93.0 194.0 L 94.0 193.0 L 93.0 191.0 L 107.0 171.0 L 117.0 160.0 L 118.0 161.0 L 117.0 160.0 L 133.0 141.0 L 154.0 121.0 L 168.0 110.0 L 169.0 111.0 L 168.0 110.0 L 185.0 97.0 L 199.0 88.0 L 201.0 89.0 L 200.0 88.0 L 206.0 84.0 L 207.0 85.0 L 206.0 84.0 L 212.0 80.0 L 245.0 64.0 L 278.0 52.0 L 281.0 53.0 L 280.0 52.0 L 284.0 50.0 L 295.0 48.0 L 299.0 46.0 L 304.0 46.0 L 314.0 43.0 L 324.0 42.0 L 330.0 40.0 L 336.0 40.0 Z
M 386.0 104.0 L 381.0 104.0 L 371.0 117.0 L 370.0 116.0 L 371.0 118.0 L 336.0 166.0 L 313.0 199.0 L 311.0 197.0 L 313.0 199.0 L 311.0 203.0 L 291.0 230.0 L 274.0 256.0 L 271.0 258.0 L 271.0 260.0 L 255.0 282.0 L 241.0 303.0 L 240.0 302.0 L 241.0 303.0 L 240.0 308.0 L 241.0 309.0 L 242.0 324.0 L 243.0 325.0 L 244.0 338.0 L 246.0 344.0 L 246.0 351.0 L 248.0 359.0 L 247.0 368.0 L 248.0 366.0 L 249.0 367.0 L 251.0 390.0 L 252.0 391.0 L 251.0 393.0 L 252.0 396.0 L 251.0 397.0 L 252.0 396.0 L 253.0 397.0 L 253.0 403.0 L 260.0 412.0 L 259.0 414.0 L 258.0 413.0 L 259.0 414.0 L 260.0 413.0 L 265.0 420.0 L 264.0 421.0 L 266.0 422.0 L 265.0 424.0 L 266.0 422.0 L 273.0 432.0 L 272.0 434.0 L 273.0 433.0 L 275.0 436.0 L 273.0 437.0 L 275.0 436.0 L 281.0 445.0 L 279.0 448.0 L 281.0 449.0 L 280.0 448.0 L 281.0 446.0 L 289.0 458.0 L 287.0 459.0 L 289.0 458.0 L 290.0 459.0 L 289.0 461.0 L 291.0 462.0 L 290.0 463.0 L 291.0 462.0 L 293.0 464.0 L 292.0 465.0 L 296.0 469.0 L 295.0 470.0 L 296.0 469.0 L 298.0 472.0 L 301.0 473.0 L 308.0 470.0 L 309.0 471.0 L 309.0 468.0 L 290.0 441.0 L 280.0 425.0 L 279.0 421.0 L 273.0 415.0 L 275.0 414.0 L 285.0 422.0 L 297.0 430.0 L 296.0 431.0 L 298.0 430.0 L 299.0 431.0 L 298.0 432.0 L 299.0 431.0 L 300.0 433.0 L 301.0 432.0 L 322.0 447.0 L 321.0 449.0 L 322.0 447.0 L 326.0 449.0 L 329.0 452.0 L 328.0 454.0 L 329.0 456.0 L 328.0 457.0 L 330.0 458.0 L 329.0 459.0 L 330.0 460.0 L 329.0 464.0 L 332.0 465.0 L 339.0 464.0 L 340.0 465.0 L 339.0 464.0 L 345.0 461.0 L 347.0 462.0 L 346.0 461.0 L 347.0 459.0 L 341.0 449.0 L 370.0 404.0 L 372.0 402.0 L 373.0 403.0 L 372.0 402.0 L 382.0 386.0 L 385.0 383.0 L 403.0 355.0 L 406.0 353.0 L 405.0 352.0 L 429.0 316.0 L 431.0 319.0 L 430.0 320.0 L 432.0 329.0 L 433.0 353.0 L 431.0 354.0 L 433.0 353.0 L 434.0 354.0 L 435.0 378.0 L 436.0 379.0 L 436.0 390.0 L 437.0 391.0 L 437.0 406.0 L 438.0 407.0 L 438.0 421.0 L 441.0 425.0 L 446.0 427.0 L 446.0 429.0 L 444.0 430.0 L 446.0 430.0 L 447.0 425.0 L 451.0 424.0 L 454.0 425.0 L 453.0 424.0 L 461.0 416.0 L 462.0 417.0 L 461.0 415.0 L 471.0 400.0 L 473.0 395.0 L 479.0 387.0 L 512.0 332.0 L 513.0 333.0 L 513.0 339.0 L 512.0 340.0 L 512.0 345.0 L 510.0 348.0 L 511.0 351.0 L 510.0 352.0 L 509.0 367.0 L 507.0 374.0 L 506.0 388.0 L 504.0 391.0 L 505.0 396.0 L 503.0 397.0 L 503.0 401.0 L 504.0 399.0 L 506.0 401.0 L 507.0 400.0 L 506.0 399.0 L 508.0 397.0 L 510.0 397.0 L 517.0 390.0 L 519.0 385.0 L 521.0 365.0 L 523.0 359.0 L 526.0 332.0 L 528.0 325.0 L 528.0 318.0 L 529.0 317.0 L 529.0 312.0 L 531.0 311.0 L 529.0 311.0 L 520.0 299.0 L 522.0 298.0 L 520.0 298.0 L 517.0 295.0 L 510.0 283.0 L 488.0 252.0 L 487.0 249.0 L 460.0 211.0 L 461.0 209.0 L 460.0 210.0 L 436.0 176.0 L 437.0 174.0 L 436.0 175.0 L 433.0 172.0 L 434.0 170.0 L 433.0 171.0 L 429.0 166.0 L 430.0 164.0 L 429.0 165.0 L 417.0 149.0 L 389.0 107.0 L 390.0 106.0 L 389.0 107.0 Z
M 686.0 271.0 L 684.0 270.0 L 685.0 269.0 L 683.0 271.0 L 678.0 265.0 L 678.0 263.0 L 677.0 264.0 L 671.0 259.0 L 672.0 258.0 L 671.0 259.0 L 661.0 253.0 L 662.0 252.0 L 659.0 253.0 L 652.0 250.0 L 642.0 249.0 L 636.0 247.0 L 628.0 247.0 L 627.0 246.0 L 600.0 246.0 L 599.0 247.0 L 594.0 246.0 L 593.0 247.0 L 582.0 247.0 L 581.0 248.0 L 566.0 249.0 L 561.0 251.0 L 549.0 252.0 L 536.0 256.0 L 528.0 257.0 L 507.0 264.0 L 506.0 266.0 L 507.0 265.0 L 508.0 266.0 L 510.0 265.0 L 514.0 266.0 L 539.0 260.0 L 549.0 261.0 L 550.0 258.0 L 558.0 258.0 L 573.0 255.0 L 585.0 255.0 L 586.0 256.0 L 587.0 254.0 L 621.0 254.0 L 622.0 255.0 L 642.0 257.0 L 652.0 261.0 L 650.0 262.0 L 653.0 261.0 L 654.0 263.0 L 656.0 262.0 L 658.0 264.0 L 660.0 264.0 L 668.0 271.0 L 667.0 272.0 L 668.0 273.0 L 669.0 272.0 L 674.0 281.0 L 674.0 283.0 L 672.0 284.0 L 673.0 288.0 L 673.0 284.0 L 674.0 283.0 L 675.0 284.0 L 674.0 302.0 L 666.0 321.0 L 661.0 328.0 L 659.0 326.0 L 660.0 323.0 L 658.0 329.0 L 659.0 331.0 L 651.0 341.0 L 639.0 353.0 L 636.0 355.0 L 635.0 354.0 L 636.0 355.0 L 629.0 361.0 L 628.0 360.0 L 629.0 361.0 L 627.0 363.0 L 626.0 362.0 L 627.0 363.0 L 623.0 366.0 L 622.0 365.0 L 623.0 366.0 L 616.0 371.0 L 614.0 370.0 L 616.0 371.0 L 612.0 374.0 L 611.0 373.0 L 605.0 379.0 L 603.0 378.0 L 604.0 379.0 L 601.0 382.0 L 579.0 395.0 L 577.0 394.0 L 578.0 395.0 L 565.0 403.0 L 563.0 402.0 L 564.0 403.0 L 552.0 409.0 L 550.0 411.0 L 547.0 410.0 L 548.0 411.0 L 544.0 414.0 L 540.0 415.0 L 538.0 417.0 L 513.0 429.0 L 511.0 429.0 L 481.0 443.0 L 479.0 442.0 L 478.0 444.0 L 424.0 466.0 L 373.0 484.0 L 363.0 486.0 L 353.0 490.0 L 348.0 490.0 L 347.0 491.0 L 344.0 490.0 L 345.0 491.0 L 344.0 492.0 L 327.0 497.0 L 323.0 497.0 L 314.0 500.0 L 310.0 500.0 L 305.0 502.0 L 296.0 503.0 L 276.0 508.0 L 275.0 507.0 L 269.0 509.0 L 254.0 510.0 L 246.0 512.0 L 226.0 513.0 L 225.0 514.0 L 190.0 514.0 L 189.0 513.0 L 169.0 512.0 L 149.0 508.0 L 136.0 502.0 L 137.0 501.0 L 135.0 502.0 L 126.0 497.0 L 116.0 486.0 L 117.0 484.0 L 116.0 485.0 L 114.0 483.0 L 111.0 472.0 L 111.0 467.0 L 112.0 466.0 L 111.0 465.0 L 114.0 454.0 L 124.0 437.0 L 145.0 415.0 L 166.0 398.0 L 176.0 391.0 L 178.0 392.0 L 177.0 391.0 L 183.0 386.0 L 187.0 384.0 L 189.0 385.0 L 190.0 382.0 L 208.0 371.0 L 210.0 371.0 L 212.0 369.0 L 236.0 357.0 L 237.0 358.0 L 238.0 357.0 L 237.0 354.0 L 235.0 354.0 L 231.0 358.0 L 215.0 363.0 L 192.0 375.0 L 190.0 374.0 L 191.0 375.0 L 175.0 384.0 L 168.0 389.0 L 166.0 388.0 L 167.0 389.0 L 160.0 395.0 L 158.0 394.0 L 159.0 393.0 L 158.0 394.0 L 159.0 395.0 L 138.0 411.0 L 122.0 427.0 L 121.0 426.0 L 122.0 427.0 L 116.0 434.0 L 111.0 442.0 L 107.0 443.0 L 109.0 442.0 L 110.0 444.0 L 108.0 446.0 L 102.0 459.0 L 100.0 475.0 L 101.0 476.0 L 101.0 482.0 L 105.0 491.0 L 104.0 494.0 L 106.0 494.0 L 109.0 498.0 L 108.0 499.0 L 109.0 498.0 L 113.0 502.0 L 112.0 503.0 L 113.0 502.0 L 122.0 509.0 L 132.0 514.0 L 143.0 518.0 L 161.0 522.0 L 180.0 523.0 L 185.0 525.0 L 184.0 526.0 L 186.0 524.0 L 224.0 524.0 L 226.0 525.0 L 227.0 523.0 L 245.0 522.0 L 252.0 520.0 L 272.0 518.0 L 278.0 516.0 L 283.0 516.0 L 313.0 510.0 L 317.0 508.0 L 321.0 509.0 L 322.0 507.0 L 325.0 511.0 L 324.0 513.0 L 325.0 512.0 L 329.0 518.0 L 328.0 520.0 L 329.0 519.0 L 337.0 530.0 L 335.0 531.0 L 337.0 530.0 L 340.0 534.0 L 339.0 536.0 L 340.0 537.0 L 341.0 536.0 L 345.0 542.0 L 344.0 543.0 L 345.0 542.0 L 347.0 545.0 L 346.0 546.0 L 347.0 545.0 L 353.0 554.0 L 352.0 555.0 L 353.0 554.0 L 362.0 567.0 L 363.0 569.0 L 362.0 570.0 L 363.0 569.0 L 364.0 570.0 L 363.0 572.0 L 364.0 571.0 L 369.0 578.0 L 368.0 579.0 L 369.0 578.0 L 370.0 579.0 L 367.0 583.0 L 370.0 580.0 L 373.0 583.0 L 376.0 588.0 L 375.0 589.0 L 376.0 588.0 L 377.0 589.0 L 376.0 593.0 L 378.0 591.0 L 380.0 593.0 L 381.0 596.0 L 387.0 604.0 L 386.0 605.0 L 394.0 610.0 L 399.0 609.0 L 430.0 563.0 L 431.0 560.0 L 434.0 557.0 L 435.0 554.0 L 437.0 552.0 L 438.0 553.0 L 437.0 552.0 L 444.0 541.0 L 446.0 543.0 L 445.0 539.0 L 460.0 517.0 L 461.0 518.0 L 460.0 516.0 L 463.0 513.0 L 472.0 497.0 L 485.0 478.0 L 501.0 450.0 L 506.0 444.0 L 513.0 442.0 L 557.0 421.0 L 559.0 421.0 L 599.0 398.0 L 601.0 399.0 L 600.0 398.0 L 609.0 392.0 L 610.0 393.0 L 609.0 392.0 L 610.0 391.0 L 612.0 392.0 L 611.0 391.0 L 616.0 387.0 L 618.0 388.0 L 617.0 387.0 L 620.0 384.0 L 622.0 385.0 L 621.0 384.0 L 642.0 368.0 L 656.0 354.0 L 659.0 352.0 L 661.0 353.0 L 660.0 351.0 L 672.0 336.0 L 675.0 330.0 L 677.0 328.0 L 678.0 329.0 L 677.0 327.0 L 684.0 314.0 L 685.0 315.0 L 684.0 312.0 L 688.0 298.0 L 688.0 288.0 L 685.0 277.0 L 686.0 273.0 L 685.0 275.0 L 683.0 271.0 L 684.0 270.0 Z
M 661.0 285.0 L 660.0 283.0 L 658.0 289.0 L 656.0 285.0 L 658.0 282.0 L 656.0 284.0 L 653.0 280.0 L 654.0 279.0 L 653.0 280.0 L 648.0 275.0 L 641.0 271.0 L 629.0 267.0 L 610.0 265.0 L 609.0 264.0 L 582.0 264.0 L 581.0 265.0 L 555.0 267.0 L 535.0 272.0 L 531.0 272.0 L 523.0 275.0 L 527.0 276.0 L 528.0 275.0 L 533.0 275.0 L 534.0 277.0 L 535.0 274.0 L 554.0 273.0 L 555.0 272.0 L 561.0 272.0 L 562.0 273.0 L 567.0 272.0 L 568.0 273.0 L 569.0 271.0 L 571.0 273.0 L 573.0 273.0 L 571.0 273.0 L 570.0 272.0 L 571.0 271.0 L 594.0 271.0 L 595.0 272.0 L 594.0 273.0 L 595.0 272.0 L 604.0 272.0 L 605.0 273.0 L 611.0 273.0 L 612.0 277.0 L 613.0 277.0 L 611.0 276.0 L 612.0 274.0 L 617.0 274.0 L 624.0 276.0 L 625.0 280.0 L 626.0 279.0 L 624.0 278.0 L 625.0 277.0 L 634.0 280.0 L 641.0 286.0 L 639.0 288.0 L 641.0 289.0 L 642.0 288.0 L 645.0 293.0 L 645.0 296.0 L 644.0 297.0 L 643.0 296.0 L 646.0 299.0 L 645.0 305.0 L 639.0 318.0 L 637.0 320.0 L 636.0 319.0 L 635.0 320.0 L 636.0 319.0 L 637.0 321.0 L 628.0 331.0 L 627.0 330.0 L 628.0 331.0 L 626.0 333.0 L 625.0 332.0 L 626.0 333.0 L 614.0 344.0 L 610.0 341.0 L 613.0 344.0 L 599.0 355.0 L 597.0 354.0 L 596.0 357.0 L 594.0 358.0 L 593.0 357.0 L 594.0 358.0 L 583.0 366.0 L 566.0 376.0 L 563.0 375.0 L 565.0 376.0 L 561.0 379.0 L 559.0 378.0 L 560.0 379.0 L 555.0 382.0 L 553.0 381.0 L 554.0 382.0 L 550.0 385.0 L 530.0 395.0 L 527.0 394.0 L 529.0 395.0 L 507.0 406.0 L 505.0 405.0 L 506.0 406.0 L 499.0 410.0 L 497.0 410.0 L 470.0 423.0 L 442.0 433.0 L 437.0 436.0 L 421.0 441.0 L 413.0 445.0 L 398.0 450.0 L 395.0 450.0 L 382.0 456.0 L 364.0 462.0 L 361.0 461.0 L 362.0 462.0 L 361.0 463.0 L 349.0 467.0 L 346.0 466.0 L 347.0 467.0 L 339.0 470.0 L 336.0 469.0 L 337.0 470.0 L 334.0 472.0 L 323.0 474.0 L 315.0 477.0 L 311.0 477.0 L 303.0 480.0 L 293.0 481.0 L 288.0 483.0 L 261.0 487.0 L 260.0 488.0 L 253.0 488.0 L 252.0 489.0 L 245.0 489.0 L 236.0 491.0 L 224.0 491.0 L 223.0 490.0 L 221.0 492.0 L 218.0 490.0 L 216.0 490.0 L 218.0 491.0 L 217.0 492.0 L 204.0 492.0 L 203.0 491.0 L 204.0 490.0 L 201.0 490.0 L 203.0 491.0 L 202.0 492.0 L 194.0 492.0 L 189.0 490.0 L 185.0 491.0 L 165.0 487.0 L 152.0 481.0 L 146.0 476.0 L 142.0 469.0 L 142.0 457.0 L 148.0 443.0 L 153.0 436.0 L 181.0 408.0 L 184.0 406.0 L 185.0 407.0 L 184.0 406.0 L 206.0 390.0 L 208.0 389.0 L 209.0 390.0 L 208.0 389.0 L 217.0 383.0 L 219.0 384.0 L 218.0 385.0 L 223.0 382.0 L 221.0 381.0 L 224.0 379.0 L 226.0 380.0 L 225.0 381.0 L 226.0 380.0 L 225.0 379.0 L 227.0 377.0 L 234.0 374.0 L 234.0 371.0 L 233.0 371.0 L 232.0 373.0 L 227.0 374.0 L 215.0 380.0 L 213.0 379.0 L 214.0 380.0 L 208.0 384.0 L 206.0 383.0 L 207.0 384.0 L 202.0 387.0 L 200.0 386.0 L 202.0 387.0 L 190.0 394.0 L 184.0 399.0 L 182.0 398.0 L 183.0 399.0 L 181.0 401.0 L 179.0 400.0 L 181.0 401.0 L 158.0 419.0 L 157.0 418.0 L 158.0 419.0 L 142.0 435.0 L 136.0 443.0 L 129.0 459.0 L 128.0 471.0 L 127.0 472.0 L 128.0 471.0 L 130.0 476.0 L 127.0 477.0 L 129.0 478.0 L 128.0 479.0 L 130.0 477.0 L 136.0 487.0 L 135.0 488.0 L 136.0 487.0 L 142.0 492.0 L 146.0 494.0 L 145.0 495.0 L 146.0 494.0 L 157.0 499.0 L 170.0 502.0 L 183.0 503.0 L 184.0 504.0 L 196.0 504.0 L 197.0 505.0 L 203.0 504.0 L 206.0 506.0 L 205.0 505.0 L 206.0 504.0 L 229.0 504.0 L 230.0 503.0 L 232.0 504.0 L 233.0 503.0 L 243.0 503.0 L 244.0 502.0 L 251.0 502.0 L 266.0 499.0 L 270.0 500.0 L 271.0 498.0 L 281.0 497.0 L 291.0 494.0 L 295.0 494.0 L 298.0 496.0 L 295.0 494.0 L 318.0 488.0 L 321.0 489.0 L 320.0 488.0 L 321.0 487.0 L 329.0 486.0 L 349.0 479.0 L 352.0 479.0 L 358.0 476.0 L 361.0 476.0 L 404.0 461.0 L 407.0 461.0 L 409.0 459.0 L 419.0 456.0 L 421.0 457.0 L 420.0 456.0 L 426.0 453.0 L 448.0 446.0 L 464.0 439.0 L 466.0 440.0 L 465.0 439.0 L 468.0 437.0 L 480.0 433.0 L 512.0 418.0 L 514.0 418.0 L 557.0 396.0 L 559.0 397.0 L 558.0 398.0 L 559.0 395.0 L 565.0 392.0 L 567.0 394.0 L 565.0 392.0 L 578.0 384.0 L 580.0 385.0 L 579.0 384.0 L 581.0 382.0 L 594.0 375.0 L 597.0 372.0 L 599.0 373.0 L 598.0 372.0 L 609.0 364.0 L 611.0 365.0 L 610.0 364.0 L 628.0 350.0 L 643.0 336.0 L 651.0 325.0 L 656.0 314.0 L 659.0 313.0 L 659.0 312.0 L 658.0 314.0 L 657.0 313.0 L 660.0 300.0 L 658.0 289.0 L 659.0 288.0 L 660.0 290.0 L 659.0 287.0 Z
M 345.0 251.0 L 348.0 254.0 L 347.0 257.0 L 348.0 254.0 L 353.0 256.0 L 362.0 262.0 L 360.0 263.0 L 362.0 262.0 L 363.0 264.0 L 364.0 263.0 L 374.0 269.0 L 376.0 271.0 L 375.0 272.0 L 377.0 271.0 L 387.0 278.0 L 386.0 279.0 L 383.0 278.0 L 387.0 280.0 L 386.0 279.0 L 387.0 278.0 L 392.0 280.0 L 403.0 288.0 L 402.0 289.0 L 404.0 288.0 L 425.0 301.0 L 424.0 304.0 L 425.0 303.0 L 426.0 305.0 L 421.0 311.0 L 420.0 310.0 L 421.0 312.0 L 405.0 333.0 L 404.0 332.0 L 405.0 334.0 L 388.0 357.0 L 383.0 366.0 L 364.0 392.0 L 333.0 439.0 L 319.0 417.0 L 317.0 412.0 L 319.0 410.0 L 318.0 409.0 L 318.0 403.0 L 319.0 402.0 L 322.0 374.0 L 326.0 354.0 L 327.0 341.0 L 329.0 335.0 L 329.0 329.0 L 330.0 328.0 L 330.0 322.0 L 331.0 321.0 L 332.0 308.0 L 335.0 295.0 L 339.0 263.0 L 341.0 254.0 L 343.0 251.0 Z
M 382.0 127.0 L 383.0 128.0 L 382.0 133.0 L 383.0 132.0 L 384.0 133.0 L 383.0 136.0 L 384.0 135.0 L 385.0 136.0 L 394.0 171.0 L 398.0 182.0 L 399.0 189.0 L 401.0 193.0 L 402.0 201.0 L 404.0 204.0 L 403.0 208.0 L 404.0 207.0 L 405.0 208.0 L 406.0 215.0 L 408.0 219.0 L 408.0 223.0 L 410.0 227.0 L 409.0 231.0 L 410.0 230.0 L 412.0 234.0 L 415.0 250.0 L 417.0 253.0 L 417.0 257.0 L 422.0 272.0 L 422.0 276.0 L 426.0 288.0 L 425.0 291.0 L 371.0 258.0 L 368.0 255.0 L 352.0 246.0 L 351.0 245.0 L 352.0 244.0 L 350.0 245.0 L 345.0 241.0 L 348.0 229.0 L 349.0 228.0 L 350.0 229.0 L 349.0 226.0 L 351.0 222.0 L 351.0 219.0 L 357.0 201.0 L 359.0 198.0 L 359.0 195.0 L 361.0 192.0 L 361.0 189.0 L 363.0 186.0 L 363.0 183.0 L 367.0 174.0 L 370.0 162.0 L 375.0 151.0 L 375.0 148.0 Z
M 332.0 253.0 L 333.0 255.0 L 330.0 264.0 L 328.0 280.0 L 326.0 286.0 L 326.0 293.0 L 323.0 305.0 L 323.0 311.0 L 319.0 330.0 L 317.0 349.0 L 315.0 355.0 L 316.0 356.0 L 314.0 363.0 L 314.0 370.0 L 313.0 371.0 L 311.0 392.0 L 309.0 400.0 L 297.0 381.0 L 298.0 379.0 L 297.0 380.0 L 293.0 374.0 L 294.0 372.0 L 293.0 373.0 L 291.0 371.0 L 268.0 332.0 L 269.0 329.0 L 268.0 331.0 L 266.0 329.0 L 257.0 314.0 L 256.0 310.0 L 257.0 309.0 L 259.0 311.0 L 257.0 309.0 L 291.0 285.0 Z
M 509.0 315.0 L 510.0 319.0 L 509.0 320.0 L 507.0 319.0 L 508.0 321.0 L 494.0 343.0 L 492.0 345.0 L 491.0 344.0 L 492.0 346.0 L 466.0 386.0 L 463.0 389.0 L 462.0 388.0 L 463.0 389.0 L 462.0 392.0 L 457.0 399.0 L 456.0 398.0 L 457.0 399.0 L 454.0 403.0 L 453.0 402.0 L 454.0 404.0 L 450.0 410.0 L 449.0 409.0 L 448.0 391.0 L 447.0 390.0 L 447.0 378.0 L 446.0 377.0 L 446.0 364.0 L 445.0 363.0 L 445.0 354.0 L 444.0 353.0 L 444.0 344.0 L 443.0 343.0 L 441.0 306.0 L 442.0 305.0 L 445.0 306.0 L 447.0 305.0 L 460.0 308.0 L 466.0 308.0 L 468.0 311.0 L 467.0 310.0 L 468.0 309.0 L 473.0 309.0 L 474.0 310.0 L 480.0 310.0 L 483.0 312.0 L 484.0 311.0 L 495.0 312.0 Z
M 428.0 474.0 L 429.0 477.0 L 395.0 582.0 L 393.0 580.0 L 391.0 570.0 L 388.0 564.0 L 387.0 558.0 L 383.0 549.0 L 383.0 546.0 L 380.0 540.0 L 375.0 523.0 L 373.0 520.0 L 374.0 515.0 L 373.0 517.0 L 372.0 516.0 L 373.0 513.0 L 372.0 514.0 L 370.0 511.0 L 366.0 496.0 L 369.0 494.0 L 375.0 493.0 L 387.0 488.0 L 390.0 489.0 L 389.0 488.0 L 390.0 487.0 L 407.0 482.0 L 424.0 475.0 L 427.0 476.0 Z
M 396.0 139.0 L 402.0 147.0 L 401.0 149.0 L 402.0 148.0 L 404.0 150.0 L 403.0 152.0 L 404.0 153.0 L 405.0 152.0 L 408.0 156.0 L 407.0 157.0 L 408.0 156.0 L 409.0 157.0 L 408.0 159.0 L 409.0 158.0 L 426.0 182.0 L 425.0 184.0 L 426.0 183.0 L 429.0 186.0 L 430.0 189.0 L 435.0 195.0 L 434.0 197.0 L 435.0 196.0 L 441.0 204.0 L 440.0 206.0 L 441.0 205.0 L 444.0 208.0 L 452.0 220.0 L 451.0 221.0 L 454.0 223.0 L 453.0 225.0 L 452.0 224.0 L 453.0 225.0 L 454.0 224.0 L 457.0 227.0 L 456.0 229.0 L 455.0 228.0 L 456.0 229.0 L 457.0 228.0 L 462.0 235.0 L 459.0 236.0 L 462.0 237.0 L 446.0 267.0 L 445.0 266.0 L 446.0 268.0 L 436.0 287.0 L 431.0 271.0 L 428.0 256.0 L 426.0 252.0 L 425.0 245.0 L 423.0 241.0 L 422.0 234.0 L 420.0 231.0 L 420.0 227.0 L 413.0 204.0 L 414.0 201.0 L 413.0 202.0 L 411.0 198.0 L 409.0 187.0 L 406.0 181.0 L 399.0 153.0 L 395.0 143.0 Z
M 370.0 137.0 L 371.0 139.0 L 367.0 147.0 L 365.0 155.0 L 364.0 156.0 L 362.0 154.0 L 364.0 156.0 L 364.0 158.0 L 353.0 189.0 L 352.0 190.0 L 351.0 188.0 L 352.0 192.0 L 343.0 215.0 L 343.0 218.0 L 335.0 240.0 L 328.0 247.0 L 270.0 291.0 L 268.0 290.0 L 269.0 291.0 L 263.0 295.0 L 262.0 293.0 L 270.0 282.0 L 271.0 283.0 L 272.0 282.0 L 274.0 284.0 L 273.0 285.0 L 275.0 283.0 L 274.0 284.0 L 271.0 280.0 L 277.0 272.0 L 278.0 273.0 L 277.0 272.0 L 284.0 261.0 L 306.0 231.0 L 324.0 203.0 L 332.0 193.0 L 339.0 181.0 L 363.0 147.0 L 364.0 151.0 L 363.0 146.0 L 366.0 145.0 L 365.0 143.0 Z
M 468.0 243.0 L 472.0 249.0 L 470.0 252.0 L 472.0 249.0 L 475.0 254.0 L 474.0 255.0 L 475.0 254.0 L 477.0 256.0 L 476.0 257.0 L 477.0 256.0 L 492.0 278.0 L 491.0 280.0 L 494.0 281.0 L 505.0 297.0 L 503.0 299.0 L 504.0 300.0 L 503.0 301.0 L 506.0 304.0 L 505.0 305.0 L 445.0 297.0 L 444.0 296.0 L 446.0 295.0 L 443.0 297.0 L 442.0 296.0 L 444.0 291.0 L 445.0 292.0 L 444.0 290.0 L 446.0 289.0 L 445.0 288.0 L 460.0 258.0 L 462.0 257.0 L 461.0 256.0 L 463.0 251.0 Z
M 255.0 327.0 L 258.0 332.0 L 257.0 333.0 L 259.0 334.0 L 257.0 336.0 L 259.0 334.0 L 261.0 337.0 L 260.0 338.0 L 264.0 342.0 L 269.0 352.0 L 268.0 353.0 L 269.0 352.0 L 273.0 358.0 L 272.0 359.0 L 275.0 361.0 L 285.0 380.0 L 289.0 385.0 L 287.0 387.0 L 289.0 386.0 L 290.0 387.0 L 289.0 390.0 L 291.0 392.0 L 292.0 391.0 L 302.0 407.0 L 300.0 409.0 L 302.0 408.0 L 305.0 412.0 L 304.0 415.0 L 305.0 416.0 L 306.0 415.0 L 314.0 426.0 L 314.0 428.0 L 316.0 430.0 L 315.0 432.0 L 308.0 428.0 L 306.0 425.0 L 305.0 426.0 L 295.0 418.0 L 292.0 417.0 L 290.0 415.0 L 291.0 414.0 L 290.0 415.0 L 264.0 396.0 L 260.0 376.0 L 257.0 349.0 L 256.0 348.0 L 256.0 342.0 L 258.0 341.0 L 256.0 342.0 L 255.0 341.0 L 255.0 334.0 L 254.0 333.0 L 254.0 328.0 Z
M 481.0 455.0 L 483.0 457.0 L 478.0 465.0 L 475.0 468.0 L 474.0 467.0 L 475.0 469.0 L 470.0 477.0 L 465.0 483.0 L 464.0 482.0 L 465.0 484.0 L 452.0 503.0 L 451.0 502.0 L 452.0 503.0 L 421.0 551.0 L 420.0 552.0 L 419.0 551.0 L 420.0 553.0 L 416.0 558.0 L 415.0 556.0 L 444.0 469.0 L 445.0 468.0 L 447.0 469.0 L 446.0 470.0 L 449.0 469.0 L 446.0 468.0 L 478.0 454.0 L 480.0 456.0 Z
M 229.0 138.0 L 230.0 140.0 L 229.0 141.0 L 228.0 153.0 L 222.0 166.0 L 218.0 170.0 L 211.0 174.0 L 193.0 177.0 L 194.0 178.0 L 205.0 179.0 L 206.0 180.0 L 205.0 181.0 L 207.0 179.0 L 215.0 182.0 L 216.0 185.0 L 218.0 184.0 L 224.0 190.0 L 223.0 192.0 L 224.0 191.0 L 226.0 193.0 L 227.0 196.0 L 226.0 200.0 L 227.0 199.0 L 228.0 200.0 L 228.0 205.0 L 231.0 216.0 L 232.0 205.0 L 237.0 190.0 L 244.0 183.0 L 246.0 182.0 L 249.0 183.0 L 247.0 182.0 L 250.0 180.0 L 266.0 178.0 L 266.0 177.0 L 262.0 174.0 L 263.0 175.0 L 262.0 176.0 L 258.0 176.0 L 245.0 172.0 L 237.0 164.0 L 233.0 153.0 L 231.0 138.0 Z
M 622.0 430.0 L 621.0 431.0 L 619.0 447.0 L 615.0 456.0 L 606.0 464.0 L 597.0 467.0 L 592.0 466.0 L 593.0 467.0 L 592.0 468.0 L 587.0 468.0 L 587.0 470.0 L 591.0 469.0 L 592.0 471.0 L 596.0 470.0 L 601.0 472.0 L 600.0 473.0 L 601.0 472.0 L 606.0 473.0 L 610.0 476.0 L 608.0 477.0 L 610.0 478.0 L 610.0 481.0 L 611.0 480.0 L 612.0 481.0 L 613.0 479.0 L 616.0 482.0 L 617.0 485.0 L 616.0 486.0 L 615.0 485.0 L 616.0 486.0 L 617.0 485.0 L 619.0 489.0 L 621.0 498.0 L 621.0 507.0 L 622.0 508.0 L 623.0 507.0 L 623.0 499.0 L 625.0 490.0 L 629.0 481.0 L 636.0 474.0 L 646.0 470.0 L 651.0 470.0 L 652.0 471.0 L 647.0 472.0 L 652.0 472.0 L 653.0 470.0 L 657.0 471.0 L 657.0 468.0 L 655.0 467.0 L 654.0 468.0 L 653.0 466.0 L 651.0 467.0 L 642.0 466.0 L 636.0 463.0 L 630.0 457.0 L 625.0 446.0 Z
M 132.0 298.0 L 130.0 298.0 L 129.0 299.0 L 130.0 300.0 L 128.0 301.0 L 130.0 306.0 L 129.0 307.0 L 129.0 312.0 L 125.0 323.0 L 122.0 326.0 L 121.0 325.0 L 122.0 327.0 L 114.0 333.0 L 111.0 334.0 L 107.0 333.0 L 106.0 335.0 L 101.0 334.0 L 103.0 335.0 L 96.0 337.0 L 97.0 338.0 L 105.0 338.0 L 106.0 339.0 L 105.0 341.0 L 106.0 339.0 L 110.0 340.0 L 107.0 341.0 L 113.0 340.0 L 114.0 341.0 L 112.0 342.0 L 115.0 341.0 L 124.0 348.0 L 123.0 350.0 L 124.0 349.0 L 126.0 351.0 L 128.0 356.0 L 127.0 360.0 L 128.0 359.0 L 129.0 360.0 L 130.0 372.0 L 128.0 373.0 L 128.0 376.0 L 129.0 373.0 L 130.0 376.0 L 131.0 376.0 L 134.0 358.0 L 138.0 349.0 L 143.0 344.0 L 144.0 345.0 L 145.0 342.0 L 147.0 343.0 L 146.0 342.0 L 149.0 340.0 L 156.0 338.0 L 165.0 338.0 L 167.0 337.0 L 166.0 336.0 L 160.0 336.0 L 159.0 335.0 L 158.0 336.0 L 150.0 334.0 L 141.0 328.0 L 142.0 327.0 L 141.0 328.0 L 138.0 325.0 L 134.0 316.0 L 133.0 311.0 L 134.0 307.0 L 133.0 308.0 L 132.0 307.0 Z
M 539.0 489.0 L 536.0 507.0 L 534.0 511.0 L 531.0 512.0 L 532.0 511.0 L 533.0 513.0 L 528.0 518.0 L 526.0 517.0 L 527.0 518.0 L 526.0 519.0 L 523.0 518.0 L 525.0 519.0 L 522.0 521.0 L 509.0 523.0 L 508.0 525.0 L 509.0 524.0 L 512.0 526.0 L 510.0 525.0 L 511.0 524.0 L 521.0 525.0 L 522.0 526.0 L 520.0 527.0 L 524.0 526.0 L 534.0 533.0 L 537.0 540.0 L 539.0 558.0 L 542.0 556.0 L 541.0 557.0 L 539.0 556.0 L 541.0 551.0 L 541.0 545.0 L 543.0 541.0 L 543.0 538.0 L 547.0 531.0 L 552.0 527.0 L 557.0 525.0 L 563.0 525.0 L 564.0 526.0 L 563.0 527.0 L 560.0 527.0 L 562.0 527.0 L 563.0 528.0 L 562.0 529.0 L 565.0 524.0 L 569.0 525.0 L 571.0 524.0 L 571.0 523.0 L 558.0 521.0 L 552.0 518.0 L 549.0 515.0 L 550.0 514.0 L 549.0 515.0 L 547.0 513.0 L 548.0 512.0 L 547.0 513.0 L 545.0 511.0 L 541.0 499.0 L 542.0 491.0 Z
M 336.0 503.0 L 343.0 502.0 L 345.0 504.0 L 343.0 502.0 L 344.0 501.0 L 351.0 499.0 L 354.0 501.0 L 362.0 525.0 L 360.0 527.0 L 362.0 530.0 L 363.0 529.0 L 364.0 530.0 L 370.0 550.0 L 372.0 553.0 L 371.0 556.0 L 373.0 557.0 L 374.0 559.0 L 373.0 561.0 L 376.0 564.0 L 375.0 567.0 L 367.0 556.0 L 368.0 554.0 L 369.0 555.0 L 370.0 554.0 L 367.0 555.0 L 365.0 553.0 L 366.0 551.0 L 365.0 552.0 L 336.0 508.0 L 335.0 506.0 Z
M 525.0 91.0 L 523.0 93.0 L 521.0 109.0 L 516.0 116.0 L 514.0 115.0 L 513.0 116.0 L 514.0 117.0 L 509.0 120.0 L 499.0 122.0 L 499.0 123.0 L 502.0 124.0 L 506.0 123.0 L 507.0 126.0 L 508.0 126.0 L 507.0 125.0 L 508.0 124.0 L 513.0 125.0 L 518.0 129.0 L 522.0 136.0 L 523.0 141.0 L 523.0 151.0 L 521.0 153.0 L 522.0 152.0 L 526.0 153.0 L 525.0 149.0 L 526.0 142.0 L 530.0 130.0 L 538.0 124.0 L 543.0 124.0 L 544.0 123.0 L 545.0 125.0 L 547.0 125.0 L 545.0 124.0 L 546.0 123.0 L 550.0 124.0 L 552.0 122.0 L 542.0 121.0 L 539.0 119.0 L 541.0 118.0 L 539.0 117.0 L 540.0 118.0 L 537.0 119.0 L 529.0 112.0 L 525.0 98.0 Z
M 169.0 218.0 L 167.0 218.0 L 167.0 224.0 L 164.0 233.0 L 157.0 239.0 L 147.0 240.0 L 146.0 241.0 L 148.0 243.0 L 149.0 242.0 L 154.0 243.0 L 155.0 242.0 L 159.0 244.0 L 164.0 249.0 L 166.0 254.0 L 167.0 263.0 L 169.0 262.0 L 169.0 254.0 L 172.0 247.0 L 175.0 244.0 L 178.0 245.0 L 176.0 244.0 L 177.0 243.0 L 188.0 241.0 L 184.0 239.0 L 177.0 238.0 L 176.0 237.0 L 178.0 236.0 L 175.0 237.0 L 171.0 233.0 L 169.0 226.0 Z
M 489.0 562.0 L 486.0 563.0 L 486.0 571.0 L 483.0 578.0 L 480.0 581.0 L 474.0 584.0 L 469.0 584.0 L 468.0 585.0 L 467.0 584.0 L 468.0 586.0 L 470.0 585.0 L 474.0 587.0 L 477.0 587.0 L 481.0 590.0 L 480.0 592.0 L 482.0 592.0 L 484.0 594.0 L 486.0 599.0 L 486.0 607.0 L 487.0 608.0 L 486.0 609.0 L 488.0 606.0 L 488.0 600.0 L 491.0 592.0 L 499.0 586.0 L 508.0 585.0 L 503.0 583.0 L 502.0 584.0 L 497.0 583.0 L 491.0 578.0 L 489.0 574.0 L 489.0 566.0 L 488.0 565.0 Z
M 223.0 430.0 L 222.0 442.0 L 219.0 448.0 L 215.0 451.0 L 203.0 454.0 L 212.0 455.0 L 217.0 457.0 L 222.0 465.0 L 222.0 471.0 L 224.0 474.0 L 225.0 466.0 L 228.0 459.0 L 232.0 456.0 L 235.0 457.0 L 234.0 456.0 L 237.0 454.0 L 240.0 455.0 L 243.0 453.0 L 232.0 451.0 L 226.0 444.0 L 227.0 440.0 L 226.0 441.0 L 225.0 440.0 L 225.0 434.0 Z
M 588.0 177.0 L 588.0 184.0 L 586.0 190.0 L 580.0 195.0 L 576.0 196.0 L 571.0 195.0 L 570.0 197.0 L 580.0 199.0 L 586.0 204.0 L 588.0 209.0 L 587.0 211.0 L 588.0 212.0 L 588.0 217.0 L 590.0 218.0 L 590.0 212.0 L 593.0 203.0 L 597.0 199.0 L 602.0 199.0 L 605.0 201.0 L 602.0 199.0 L 608.0 197.0 L 601.0 195.0 L 606.0 194.0 L 601.0 194.0 L 600.0 195.0 L 596.0 194.0 L 594.0 192.0 L 595.0 191.0 L 594.0 192.0 L 592.0 190.0 L 590.0 177.0 Z
M 281.0 544.0 L 277.0 547.0 L 276.0 554.0 L 278.0 557.0 L 282.0 559.0 L 286.0 559.0 L 291.0 555.0 L 292.0 550.0 L 289.0 545.0 Z
M 280.0 90.0 L 277.0 92.0 L 274.0 92.0 L 270.0 97.0 L 270.0 101.0 L 274.0 106.0 L 273.0 107.0 L 274.0 106.0 L 280.0 106.0 L 283.0 104.0 L 285.0 100.0 L 285.0 97.0 Z
M 583.0 324.0 L 576.0 325.0 L 572.0 330.0 L 573.0 335.0 L 576.0 338.0 L 579.0 338.0 L 580.0 340.0 L 586.0 334.0 L 586.0 328.0 Z
M 502.0 173.0 L 498.0 176.0 L 497.0 181.0 L 496.0 182.0 L 495.0 181.0 L 496.0 183.0 L 497.0 182.0 L 499.0 186.0 L 507.0 187.0 L 511.0 183.0 L 511.0 178.0 L 508.0 174.0 Z
M 486.0 451.0 L 487.0 452.0 L 483.0 457.0 L 480.0 454.0 Z
M 505.0 301.0 L 506.0 300.0 L 509.0 304.0 L 507.0 305.0 L 505.0 303.0 Z
M 545.0 260.0 L 546.0 259.0 L 550.0 260.0 L 549.0 261.0 Z
M 424.0 302.0 L 426.0 301.0 L 427.0 303.0 L 426.0 304.0 Z
M 503.0 299.0 L 505.0 298.0 L 506.0 300.0 L 505.0 301.0 Z
M 640.0 287.0 L 641.0 286.0 L 642.0 288.0 L 641.0 289.0 Z
M 376.0 569.0 L 377.0 568.0 L 378.0 570.0 L 377.0 571.0 Z
M 375.0 567.0 L 376.0 566.0 L 377.0 568.0 L 376.0 569.0 Z
M 414.0 558.0 L 415.0 557.0 L 416.0 559.0 L 415.0 560.0 Z
M 361.0 528.0 L 362.0 527.0 L 363.0 529.0 L 362.0 530.0 Z
M 215.0 184.0 L 216.0 183.0 L 218.0 184.0 L 217.0 185.0 Z
M 304.0 414.0 L 305.0 413.0 L 306.0 415.0 L 305.0 416.0 Z
M 394.0 138.0 L 395.0 137.0 L 396.0 139.0 L 395.0 140.0 Z
M 596.0 643.0 L 597.0 642.0 L 599.0 643.0 L 598.0 644.0 Z
M 480.0 591.0 L 481.0 590.0 L 482.0 591.0 L 481.0 592.0 Z
M 540.0 491.0 L 541.0 490.0 L 542.0 491.0 L 541.0 492.0 Z
M 143.0 344.0 L 144.0 343.0 L 145.0 344.0 L 144.0 345.0 Z
M 128.0 302.0 L 129.0 301.0 L 130.0 302.0 L 129.0 303.0 Z
M 218.0 383.0 L 219.0 382.0 L 220.0 383.0 L 219.0 384.0 Z
M 220.0 382.0 L 221.0 381.0 L 222.0 382.0 L 221.0 383.0 Z
M 596.0 355.0 L 597.0 354.0 L 598.0 355.0 L 597.0 356.0 Z
M 659.0 285.0 L 660.0 284.0 L 661.0 285.0 L 660.0 286.0 Z
M 376.0 591.0 L 377.0 590.0 L 378.0 591.0 L 377.0 592.0 Z
M 444.0 541.0 L 445.0 540.0 L 446.0 541.0 L 445.0 542.0 Z
M 339.0 536.0 L 340.0 535.0 L 341.0 536.0 L 340.0 537.0 Z
M 104.0 493.0 L 105.0 492.0 L 106.0 493.0 L 105.0 494.0 Z
M 188.0 384.0 L 189.0 383.0 L 190.0 384.0 L 189.0 385.0 Z
M 234.0 355.0 L 235.0 354.0 L 236.0 355.0 L 235.0 356.0 Z
M 658.0 329.0 L 659.0 328.0 L 660.0 329.0 L 659.0 330.0 Z
M 659.0 328.0 L 660.0 327.0 L 661.0 328.0 L 660.0 329.0 Z
M 667.0 272.0 L 668.0 271.0 L 669.0 272.0 L 668.0 273.0 Z
M 315.0 432.0 L 316.0 431.0 L 317.0 432.0 L 316.0 433.0 Z
M 317.0 410.0 L 318.0 409.0 L 319.0 410.0 L 318.0 411.0 Z
M 505.0 400.0 L 506.0 399.0 L 507.0 400.0 L 506.0 401.0 Z
M 290.0 391.0 L 291.0 390.0 L 292.0 391.0 L 291.0 392.0 Z
M 289.0 389.0 L 290.0 388.0 L 291.0 389.0 L 290.0 390.0 Z
M 253.0 327.0 L 254.0 326.0 L 255.0 327.0 L 254.0 328.0 Z
M 507.0 320.0 L 508.0 319.0 L 509.0 320.0 L 508.0 321.0 Z
M 260.0 296.0 L 261.0 295.0 L 262.0 296.0 L 261.0 297.0 Z
M 261.0 295.0 L 262.0 294.0 L 263.0 295.0 L 262.0 296.0 Z
M 425.0 291.0 L 426.0 290.0 L 427.0 291.0 L 426.0 292.0 Z
M 270.0 282.0 L 271.0 281.0 L 272.0 282.0 L 271.0 283.0 Z
M 491.0 280.0 L 492.0 279.0 L 493.0 280.0 L 492.0 281.0 Z
M 403.0 152.0 L 404.0 151.0 L 405.0 152.0 L 404.0 153.0 Z
M 364.0 145.0 L 365.0 144.0 L 366.0 145.0 L 365.0 146.0 Z
M 513.0 116.0 L 514.0 115.0 L 515.0 116.0 L 514.0 117.0 Z
M 278.0 91.0 L 279.0 90.0 L 280.0 91.0 L 279.0 92.0 Z
M 184.0 663.0 L 185.0 662.0 L 186.0 663.0 L 185.0 664.0 Z
M 658.0 586.0 L 659.0 585.0 L 660.0 586.0 L 659.0 587.0 Z
M 659.0 585.0 L 660.0 584.0 L 661.0 585.0 L 660.0 586.0 Z
M 58.0 526.0 L 59.0 525.0 L 60.0 526.0 L 59.0 527.0 Z
M 714.0 271.0 L 715.0 270.0 L 716.0 271.0 L 715.0 272.0 Z
M 705.0 247.0 L 706.0 246.0 L 707.0 247.0 L 706.0 248.0 Z
M 92.0 193.0 L 93.0 192.0 L 94.0 193.0 L 93.0 194.0 Z
M 675.0 192.0 L 676.0 191.0 L 677.0 192.0 L 676.0 193.0 Z
M 634.0 141.0 L 635.0 140.0 L 636.0 141.0 L 635.0 142.0 Z
M 633.0 140.0 L 634.0 139.0 L 635.0 140.0 L 634.0 141.0 Z
M 632.0 139.0 L 633.0 138.0 L 634.0 139.0 L 633.0 140.0 Z
M 631.0 138.0 L 632.0 137.0 L 633.0 138.0 L 632.0 139.0 Z
M 124.0 131.0 L 125.0 130.0 L 126.0 131.0 L 125.0 132.0 Z
M 612.0 103.0 L 613.0 102.0 L 614.0 103.0 L 613.0 104.0 Z
M 611.0 102.0 L 612.0 101.0 L 613.0 102.0 L 612.0 103.0 Z
M 589.0 102.0 L 590.0 101.0 L 591.0 102.0 L 590.0 103.0 Z
M 610.0 101.0 L 611.0 100.0 L 612.0 101.0 L 611.0 102.0 Z
M 568.0 88.0 L 569.0 87.0 L 570.0 88.0 L 569.0 89.0 Z
M 563.0 85.0 L 564.0 84.0 L 565.0 85.0 L 564.0 86.0 Z" fill="#A86C22" fill-rule="evenodd"/>
</svg>
